<svg data-name="Group 28" xmlns="http://www.w3.org/2000/svg" width="50" height="50" viewBox="0 0 50 50">
    <defs>
        <clipPath id="a">
            <path data-name="Rectangle 31" fill="#111" stroke="#111" stroke-width="1.2" d="M0 0h50v50H0z" />
        </clipPath>
    </defs>
    <g data-name="Group 27" clip-path="url(#a)">
        <path data-name="Path 31" d="M25 0a25 25 0 1 0 25 25A25.028 25.028 0 0 0 25 0m23.333 24.977A23.446 23.446 0 0 1 32.69 18.49l9.363-9.363a23.221 23.221 0 0 1 6.28 15.85m-7.458-17.03-9.363 9.365a23.555 23.555 0 0 1-6.487-15.645 23.224 23.224 0 0 1 15.85 6.28m-17.513-6.2a25.238 25.238 0 0 0 6.971 16.743L25 23.82 9.127 7.947a23.245 23.245 0 0 1 14.235-6.2M7.948 9.127 23.822 25l-5.332 5.33a25.069 25.069 0 0 0-16.74-6.97 23.213 23.213 0 0 1 6.2-14.233m-6.28 15.9a23.446 23.446 0 0 1 15.642 6.483l-9.364 9.363a23.2 23.2 0 0 1-6.28-15.85m7.458 17.03 9.364-9.363a23.55 23.55 0 0 1 6.487 15.642 23.22 23.22 0 0 1-15.85-6.278m17.512 6.2a25.24 25.24 0 0 0-6.97-16.742L25 26.178l15.875 15.875a23.236 23.236 0 0 1-14.237 6.2m15.415-7.378L26.178 25l5.332-5.33a25.273 25.273 0 0 0 16.74 6.985 23.207 23.207 0 0 1-6.2 14.218" fill="#111" stroke="#111" stroke-width="1.2" />
    </g>
</svg>