<svg data-name="Group 30" xmlns="http://www.w3.org/2000/svg" width="50" height="43.333" viewBox="0 0 50 43.333">
    <defs>
        <clipPath id="a">
            <path data-name="Rectangle 32" fill="#111" stroke="#111" stroke-width=".5" d="M0 0h50v43.333H0z" />
        </clipPath>
    </defs>
    <g data-name="Group 29" clip-path="url(#a)" stroke-width=".5">
        <path data-name="Path 32" d="M49.167 3.333h-2.5v-2.5A.834.834 0 0 0 45.833 0H26.667a.839.839 0 0 0-.59.243L25 1.322 23.922.243A.832.832 0 0 0 23.333 0H4.167a.834.834 0 0 0-.833.833v2.5H.833A.834.834 0 0 0 0 4.167v36.666a.834.834 0 0 0 .833.833h20.489l.245.247a4.861 4.861 0 0 0 6.867 0l.245-.247h20.488a.834.834 0 0 0 .833-.833V4.167a.834.834 0 0 0-.833-.833m-22.5-1.322.345-.345H45v35H26.667ZM5 1.667h17.988L24.41 3.09a.838.838 0 0 0 .59.233v34.665l-1.078-1.078a.832.832 0 0 0-.588-.243H5ZM48.333 40h-20a.839.839 0 0 0-.59.243l-.49.49a3.27 3.27 0 0 1-4.508 0l-.49-.49a.832.832 0 0 0-.588-.243h-20V5h1.666v32.5a.834.834 0 0 0 .833.833h18.822l1.422 1.423a.835.835 0 0 0 1.178 0l1.423-1.423h18.822a.834.834 0 0 0 .833-.833V5h1.667Z" fill="#111" stroke="#111" />
        <path data-name="Path 33" d="M40.833 5h-10a.833.833 0 1 0 0 1.667h10a.833.833 0 1 0 0-1.667" fill="#111" stroke="#111" />
        <path data-name="Path 34" d="M40.833 10h-10a.833.833 0 1 0 0 1.667h10a.833.833 0 1 0 0-1.667" fill="#111" stroke="#111" />
        <path data-name="Path 35" d="M40.833 15h-10a.833.833 0 1 0 0 1.667h10a.833.833 0 1 0 0-1.667" fill="#111" stroke="#111" />
        <path data-name="Path 36" d="M40.833 20h-10a.833.833 0 1 0 0 1.667h10a.833.833 0 1 0 0-1.667" fill="#3f8cff" stroke="#3f8cff" />
        <path data-name="Path 37" d="M19.166 5h-10a.833.833 0 0 0 0 1.667h10a.833.833 0 1 0 0-1.667" fill="#111" stroke="#111" />
        <path data-name="Path 38" d="M19.166 10h-10a.833.833 0 0 0 0 1.667h10a.833.833 0 1 0 0-1.667" fill="#7c8da6" stroke="#7c8da6" />
        <path data-name="Path 39" d="M19.166 15h-10a.833.833 0 0 0 0 1.667h10a.833.833 0 1 0 0-1.667" fill="#111" stroke="#111" />
        <path data-name="Path 40" d="M19.166 20h-10a.833.833 0 0 0 0 1.667h10a.833.833 0 1 0 0-1.667" fill="#111" stroke="#111" />
        <path data-name="Path 41" d="M19.166 25h-10a.833.833 0 0 0 0 1.667h10a.833.833 0 1 0 0-1.667" fill="#111" stroke="#111" />
        <path data-name="Path 42" d="M19.166 30h-10a.833.833 0 1 0 0 1.667h10a.833.833 0 1 0 0-1.667" fill="#abb9cf" stroke="#abb9cf" />
    </g>
</svg>