<svg xmlns="http://www.w3.org/2000/svg" width="24" height="24" viewBox="0 0 24 24">
    <g fill="none" stroke="#3f8cff" stroke-linecap="round" stroke-linejoin="round" data-name="vuesax/linear/calendar-tick">
        <path d="M8 2v3" stroke-width="1.5" />
        <path data-name="Vector" d="M16 2v3M3.5 9.09h17" stroke-width="1.5" />
        <g stroke-width="1.5">
            <path data-name="Vector" d="M22 19a3.921 3.921 0 0 1-.58 2.06A3.97 3.97 0 0 1 18 23a3.905 3.905 0 0 1-2.63-1 3.593 3.593 0 0 1-.79-.94A3.921 3.921 0 0 1 14 19a4 4 0 0 1 8 0Z" />
            <path data-name="Vector" d="m16.44 19 .99.99 2.13-1.97" />
        </g>
        <path data-name="Vector" d="M21 8.5v7.86A4 4 0 0 0 14 19a3.921 3.921 0 0 0 .58 2.06 3.593 3.593 0 0 0 .79.94H8c-3.5 0-5-2-5-5V8.5c0-3 1.5-5 5-5h8c3.5 0 5 2 5 5Z" stroke-width="1.5" />
        <path data-name="Vector" d="M11.996 13.7h.005m-3.706 0H8.3m-.005 3H8.3" stroke-width="2" />
    </g>
</svg>