<svg xmlns="http://www.w3.org/2000/svg" width="24" height="24" viewBox="0 0 24 24">
    <g transform="translate(-172 -188)" data-name="vuesax/bold/clock">
        <circle data-name="Ellipse 8" cx="7.5" cy="7.5" r="7.5" transform="translate(177 193)" fill="#111" />
        <path d="M184 190a10 10 0 1 0 10 10 10.016 10.016 0 0 0-10-10Zm4.35 13.57a.746.746 0 0 1-.65.37.67.67 0 0 1-.38-.11l-3.1-1.85a2.949 2.949 0 0 1-1.34-2.36v-4.1a.75.75 0 0 1 1.5 0v4.1a1.478 1.478 0 0 0 .61 1.07l3.1 1.85a.74.74 0 0 1 .26 1.03Z" fill="#ff6230" />
    </g>
</svg>