<svg id="_037-package" data-name="037-package" xmlns="http://www.w3.org/2000/svg" width="75" height="75" viewBox="0 0 75 75">
  <g id="Group_42" data-name="Group 42" transform="translate(5.883 1.465)" opacity="0.65">
    <path id="XMLID_1000_" d="M185.616,37.946l-12.5-8.825-12.5,8.825V10h25Z" transform="translate(-142.968 -10)" fill="#3f8cff"/>
    <path id="Path_106" data-name="Path 106" d="M63.684,366.125H40.163v-14.7H63.684Z" transform="translate(-40.163 -301.415)" fill="#3f8cff"/>
  </g>
  <g id="Group_43" data-name="Group 43" transform="translate(0 0)">
    <path id="Path_107" data-name="Path 107" d="M359.81,322.595a1.465,1.465,0,0,0-2.069,0l-4.16,4.16a1.465,1.465,0,0,0,2.072,2.072l1.659-1.66V341.03a1.465,1.465,0,0,0,2.93,0V327.169l1.66,1.66a1.465,1.465,0,1,0,2.071-2.072Z" transform="translate(-301.421 -274.975)" fill="#676d7c"/>
    <path id="Path_108" data-name="Path 108" d="M72.058,47.613V5.877A5.884,5.884,0,0,0,66.181,0H5.877A5.884,5.884,0,0,0,0,5.877v60.3a5.884,5.884,0,0,0,5.877,5.877H47.613A17.635,17.635,0,0,0,72.058,47.613ZM2.93,66.181V5.877A2.951,2.951,0,0,1,5.877,2.93h60.3a2.951,2.951,0,0,1,2.948,2.948V44.226a17.634,17.634,0,0,0-24.9,24.9H5.877A2.951,2.951,0,0,1,2.93,66.181ZM57.356,72.07A14.714,14.714,0,1,1,72.07,57.356,14.731,14.731,0,0,1,57.356,72.07Z" transform="translate(0 0)" fill="#111"/>
    <path id="Path_109" data-name="Path 109" d="M62.219,271.1H41.628a1.465,1.465,0,0,0,0,2.93H62.219a1.465,1.465,0,0,0,0-2.93Z" transform="translate(-34.28 -231.39)" fill="#676d7c"/>
    <path id="Path_110" data-name="Path 110" d="M62.219,311.266H41.628a1.465,1.465,0,0,0,0,2.93H62.219a1.465,1.465,0,0,0,0-2.93Z" transform="translate(-34.28 -265.67)" fill="#111"/>
  </g>
</svg>
