<svg data-name="Group 14" xmlns="http://www.w3.org/2000/svg" width="50" height="47.577" viewBox="0 0 50 47.577">
    <defs>
        <clipPath id="a">
            <path data-name="Rectangle 20" fill="#111" d="M0 0h50v47.577H0z" />
        </clipPath>
    </defs>
    <g data-name="Group 13" clip-path="url(#a)">
        <path data-name="Path 9" d="m43.581 34.932-3.717-14.5A10.218 10.218 0 0 0 39.776 0h-7a10.142 10.142 0 0 0-7.214 3 10.407 10.407 0 0 0-1.258 1.525 1.4 1.4 0 0 0-.28-.35 1.414 1.414 0 0 0-1.118-.338l-7.292.969a1.415 1.415 0 0 0-1.229 1.4v.043h-1.749a3.893 3.893 0 0 0-3.67 2.638H1.415a1.415 1.415 0 0 0 0 2.83h7.6a3.9 3.9 0 0 0 3.621 2.471h1.751v.043a1.415 1.415 0 0 0 1.229 1.4l7.292.969a1.4 1.4 0 0 0 .186.012 1.374 1.374 0 0 0 1.224-.721 10.258 10.258 0 0 0 6.527 4.355l3.532 13.835h-1.939a7.655 7.655 0 0 0-7.647 7.647v4.429a1.415 1.415 0 0 0 1.415 1.415h20.15a1.415 1.415 0 0 0 1.415-1.415v-4.424a7.592 7.592 0 0 0-4.19-6.8M12.636 11.358a1.071 1.071 0 0 1-1.07-1.069v-.135a1.071 1.071 0 0 1 1.07-1.069h1.751v2.274Zm9.043 2.227-4.3-.572a1.414 1.414 0 0 0 .024-.24V7.67a1.414 1.414 0 0 0-.024-.24l4.3-.572Zm3.714-3.361a7.419 7.419 0 0 1 7.385-7.394h7a7.39 7.39 0 0 1 0 14.78h-7a5.884 5.884 0 0 1-.639-.03h-.03a7.427 7.427 0 0 1-6.715-7.352M36.943 20.44l3.5 13.653q-.163-.007-.329-.007H37.3L33.815 20.44Zm8 24.307H27.622v-3.014a4.822 4.822 0 0 1 4.816-4.817h7.676a4.808 4.808 0 0 1 4.827 4.817Z" fill="#111" />
        <path data-name="Path 48" d="m17.375 7.3 4.27-.474v6.642l-4.27-.271Z" fill="#3f8cff" />
    </g>
</svg>