<svg xmlns="http://www.w3.org/2000/svg" width="67.645" height="75" viewBox="0 0 67.645 75">
  <g id="_015-guarantee" data-name="015-guarantee" transform="translate(-25.107)">
    <g id="Group_35" data-name="Group 35" transform="translate(58.567 30.887)" opacity="0.65">
      <path id="Path_93" data-name="Path 93" d="M273.011,220.6a9.738,9.738,0,1,0-16.993,6.486v12.086l7.255-4.018,7.255,4.018V227.081A9.7,9.7,0,0,0,273.011,220.6Z" transform="translate(-253.535 -210.857)" fill="#3f8cff"/>
    </g>
    <g id="Group_36" data-name="Group 36" transform="translate(25.107 0)">
      <path id="Path_94" data-name="Path 94" d="M91.287,63.244H85.4V5.877A5.884,5.884,0,0,0,79.52,0H30.966a5.866,5.866,0,0,0-5.859,5.859v7.372A1.465,1.465,0,0,0,26.572,14.7h7.36v53.69a6.616,6.616,0,0,0,7.112,6.592c.246.04-1.7.012,41.419.021a10.3,10.3,0,0,0,10.29-10.29,1.465,1.465,0,0,0-1.465-1.465ZM28.037,5.859a2.933,2.933,0,0,1,2.93-2.93H31a2.933,2.933,0,0,1,2.93,2.93v5.907h-5.9Zm8.825,62.527V5.859a5.821,5.821,0,0,0-.788-2.93H79.52a2.951,2.951,0,0,1,2.948,2.948V63.244H45.692a1.465,1.465,0,0,0-1.465,1.465v3.677a3.683,3.683,0,1,1-7.366,0Zm45.6,3.683H46.033a6.575,6.575,0,0,0,1.123-3.683V66.173H89.675A7.372,7.372,0,0,1,82.462,72.069Z" transform="translate(-25.107 0)" fill="#111"/>
      <path id="Path_95" data-name="Path 95" d="M137.021,53.134h33.828a1.465,1.465,0,1,0,0-2.93H137.021a1.465,1.465,0,1,0,0,2.93Z" transform="translate(-119.377 -42.85)" fill="#676d7c"/>
      <path id="Path_96" data-name="Path 96" d="M137.021,108.359h33.828a1.465,1.465,0,0,0,0-2.93H137.021a1.465,1.465,0,0,0,0,2.93Z" transform="translate(-119.377 -89.986)" fill="#676d7c"/>
      <path id="Path_97" data-name="Path 97" d="M137.021,163.583h33.828a1.465,1.465,0,1,0,0-2.93H137.021a1.465,1.465,0,1,0,0,2.93Z" transform="translate(-119.377 -137.12)" fill="#111"/>
      <path id="Path_98" data-name="Path 98" d="M137.021,218.807h11.766a1.465,1.465,0,0,0,0-2.93H137.021a1.465,1.465,0,1,0,0,2.93Z" transform="translate(-119.377 -184.255)" fill="#111"/>
      <path id="Path_99" data-name="Path 99" d="M137.021,274.032h10.3a1.465,1.465,0,1,0,0-2.93h-10.3a1.465,1.465,0,0,0,0,2.93Z" transform="translate(-119.377 -231.391)" fill="#111"/>
      <path id="Path_100" data-name="Path 100" d="M137.021,329.257h10.3a1.465,1.465,0,1,0,0-2.93h-10.3a1.465,1.465,0,1,0,0,2.93Z" transform="translate(-119.377 -278.526)" fill="#abb9cf"/>
      <path id="Path_101" data-name="Path 101" d="M137.021,384.481h10.3a1.465,1.465,0,0,0,0-2.93h-10.3a1.465,1.465,0,1,0,0,2.93Z" transform="translate(-119.377 -325.661)" fill="#111"/>
    </g>
  </g>
</svg>
