<svg xmlns="http://www.w3.org/2000/svg" width="50" height="50" viewBox="0 0 50 50">
    <defs>
        <clipPath id="a">
            <path data-name="Rectangle 23" fill="#111" stroke="#111" stroke-width="1.2" d="M0 0h50v50H0z" />
        </clipPath>
    </defs>
    <g data-name="Group 20">
        <g data-name="Group 19" clip-path="url(#a)" stroke-width="1.2">
            <path data-name="Path 18" d="M45.925 22.774A21.567 21.567 0 0 0 25.853 6.699c.14-1.337.947-4.13 5.16-5.055a.834.834 0 1 0-.358-1.625c-3.67.807-5.275 2.848-5.97 4.607a5.907 5.907 0 0 0-3.67-2.94.834.834 0 0 0-.362 1.628c1.745.387 2.733 2.232 3.2 3.4a21.567 21.567 0 0 0-19.776 16.06 5.829 5.829 0 0 0 0 11.118 21.644 21.644 0 0 0 41.848 0 5.829 5.829 0 0 0 0-11.118m-.867 9.625a.833.833 0 0 0-.633.618 19.975 19.975 0 0 1-38.848 0 .833.833 0 0 0-.633-.618 4.161 4.161 0 0 1 0-8.132.833.833 0 0 0 .633-.618 19.975 19.975 0 0 1 38.848 0 .833.833 0 0 0 .633.618 4.161 4.161 0 0 1 0 8.132" fill="#111" stroke="#111" />
            <path data-name="Path 19" d="M32.5 23.333a2.5 2.5 0 1 0 2.5 2.5 2.5 2.5 0 0 0-2.5-2.5m0 3.333a.833.833 0 1 1 .833-.833.835.835 0 0 1-.833.833" fill="#111" stroke="#111" />
            <path data-name="Path 20" d="M17.5 28.333a2.5 2.5 0 1 0-2.5-2.5 2.5 2.5 0 0 0 2.5 2.5m0-3.333a.833.833 0 1 1-.833.833A.835.835 0 0 1 17.5 25" fill="#111" stroke="#111" />
            <path data-name="Path 21" d="M33.64 36.856a13.521 13.521 0 0 1-17.278 0 .833.833 0 1 0-1.055 1.288 15.164 15.164 0 0 0 19.388 0 .833.833 0 0 0-1.055-1.288" fill="#3f8cff" stroke="#3f8cff" />
            <path data-name="Path 22" d="M25 35a3.535 3.535 0 0 0 3.287-2.222.834.834 0 0 0-1.573-.557 1.879 1.879 0 0 1-3.428.005.833.833 0 1 0-1.57.557A3.539 3.539 0 0 0 25.001 35" fill="#7c8da6" stroke="#7c8da6" />
        </g>
    </g>
</svg>