<svg data-name="Group 22" xmlns="http://www.w3.org/2000/svg" width="50" height="47.073" viewBox="0 0 50 47.073">
    <defs>
        <clipPath id="a">
            <path data-name="Rectangle 25" fill="#111" d="M0 0h50v47.073H0z" />
        </clipPath>
    </defs>
    <g data-name="Group 21" clip-path="url(#a)">
        <path data-name="Path 23" d="M38.545 0C33.408 0 24.193 2.676 22.73 7.807h-2.383a1.4 1.4 0 0 0-.448.08V6.625h-6.161v5.8h-2.7a1.415 1.415 0 0 0-1.415 1.415v5.817H1.416a1.415 1.415 0 0 0-1.415 1.414v24.587a1.415 1.415 0 0 0 1.416 1.415h30.804a1.415 1.415 0 0 0 1.415-1.415V21.071a1.415 1.415 0 0 0-1.415-1.415h-8.21v-5.817a1.415 1.415 0 0 0-1.415-1.415h-2.695v-1.866a1.4 1.4 0 0 0 .448.08h2.383c1.463 5.131 10.678 7.807 15.815 7.807 6 0 11.455-4.4 11.455-9.223S44.54 0 38.545 0m-7.744 44.243H2.83V22.486h27.971Zm-9.62-24.775h-8.726v-4.214h8.726Zm17.364-3.853c-5.637 0-13.189-3.16-13.189-6.392S32.908 2.83 38.545 2.83c4.857 0 8.625 3.436 8.625 6.392s-3.768 6.392-8.625 6.392" fill="#111" />
        <path data-name="Path 49" d="M11.684 31.283h10.268v4.165H11.684Z" fill="#3f8cff" />
        <path data-name="Path 24" d="M7.063 41.425h19.51a1.415 1.415 0 0 0 1.415-1.415V26.718a1.415 1.415 0 0 0-1.415-1.415H7.063a1.415 1.415 0 0 0-1.415 1.415V40.01a1.415 1.415 0 0 0 1.415 1.415m1.415-13.292h16.68v10.462H8.478Z" fill="#7c8da6" />
    </g>
</svg>