<svg data-name="Group 32" xmlns="http://www.w3.org/2000/svg" width="38.208" height="50" viewBox="0 0 38.208 50">
    <defs>
        <clipPath id="a">
            <path data-name="Rectangle 33" fill="#111" d="M0 0h38.208v50H0z" />
        </clipPath>
    </defs>
    <g data-name="Group 31" clip-path="url(#a)">
        <path data-name="Path 47" d="M36.627 13.487a12.825 12.825 0 0 0-3.481-4.016 4.08 4.08 0 0 0 2.768-3.85V4.088A4.092 4.092 0 0 0 31.826 0H6.381a4.092 4.092 0 0 0-4.088 4.088v1.533a4.08 4.08 0 0 0 2.772 3.851A12.71 12.71 0 0 0 0 19.615v17.649A12.751 12.751 0 0 0 12.736 50h12.736a12.75 12.75 0 0 0 12.736-12.736V19.615a12.7 12.7 0 0 0-1.58-6.128m-8.738-7.2V2.83h3.937a1.259 1.259 0 0 1 1.258 1.258v1.533a1.259 1.259 0 0 1-1.258 1.258h-4.07a1.4 1.4 0 0 0 .132-.59m-4.914 0V2.83h2.083v3.459a1.4 1.4 0 0 0 .132.59h-2.347a1.406 1.406 0 0 0 .132-.59m-4.914 0V2.83h2.083v3.459a1.406 1.406 0 0 0 .132.59H17.93a1.4 1.4 0 0 0 .132-.59m-4.913 0V2.83h2.083v3.459a1.4 1.4 0 0 0 .132.59h-2.347a1.406 1.406 0 0 0 .132-.59m-8.026-2.2A1.259 1.259 0 0 1 6.381 2.83h3.938v3.459a1.4 1.4 0 0 0 .132.59h-4.07a1.259 1.259 0 0 1-1.258-1.258Zm30.254 33.175a9.917 9.917 0 0 1-9.906 9.906H12.736a9.917 9.917 0 0 1-9.906-9.906V19.615a9.917 9.917 0 0 1 9.906-9.906h12.736a9.93 9.93 0 0 1 9.906 9.906Z" fill="#111" />
    </g>
    <path data-name="Path 50" d="M2.944 27.177h32.519" fill="none" stroke="#3f8cff" stroke-width="5" />
</svg>