<svg xmlns="http://www.w3.org/2000/svg" width="24" height="24" viewBox="0 0 24 24">
    <g fill="none" stroke="#676d7c" stroke-linecap="round" stroke-linejoin="round" stroke-width="1.5" data-name="vuesax/linear/group">
        <path d="M15 2v10a2.006 2.006 0 0 1-2 2H2V6a4 4 0 0 1 4-4Z" />
        <path data-name="Vector" d="M22 14v3a3 3 0 0 1-3 3h-1a2 2 0 0 0-4 0h-4a2 2 0 0 0-4 0H5a3 3 0 0 1-3-3v-3h11a2.006 2.006 0 0 0 2-2V5h1.84a2.016 2.016 0 0 1 1.74 1.01L20.29 9H19a1 1 0 0 0-1 1v3a1 1 0 0 0 1 1Z" />
        <path data-name="Vector" d="M10 20a2 2 0 1 1-2-2 2 2 0 0 1 2 2Zm8 0a2 2 0 1 1-2-2 2 2 0 0 1 2 2Zm4-8v2h-3a1 1 0 0 1-1-1v-3a1 1 0 0 1 1-1h1.29Z" />
    </g>
</svg>