<svg xmlns="http://www.w3.org/2000/svg" width="54.199" height="75" viewBox="0 0 54.199 75">
  <g id="_005-shield" data-name="005-shield" transform="translate(-71)">
    <g id="Group_47" data-name="Group 47" transform="translate(78.324 7.324)" opacity="0.65">
      <path id="XMLID_90_" d="M130.418,102A21.668,21.668,0,0,1,121,84.127V57.566A14.733,14.733,0,0,0,128.566,50h24.419a14.734,14.734,0,0,0,7.566,7.566V84.127A21.668,21.668,0,0,1,151.133,102l-10.357,7.1Z" transform="translate(-121 -50)" fill="#3f8cff"/>
    </g>
    <g id="Group_48" data-name="Group 48" transform="translate(71)">
      <path id="Path_115" data-name="Path 115" d="M123.734,8.789a7.333,7.333,0,0,1-7.324-7.324A1.465,1.465,0,0,0,114.945,0H81.254a1.465,1.465,0,0,0-1.465,1.465,7.333,7.333,0,0,1-7.324,7.324A1.465,1.465,0,0,0,71,10.254v31.2A28.988,28.988,0,0,0,83.6,65.368l13.671,9.375a1.465,1.465,0,0,0,1.657,0L112.6,65.369a28.989,28.989,0,0,0,12.6-23.918v-31.2a1.465,1.465,0,0,0-1.465-1.465ZM122.27,41.451a26.061,26.061,0,0,1-11.327,21.5L98.1,71.759,85.257,62.952a26.061,26.061,0,0,1-11.327-21.5V11.614A10.278,10.278,0,0,0,82.614,2.93h30.97a10.278,10.278,0,0,0,8.685,8.685Z" transform="translate(-71)" fill="#111"/>
      <path id="Path_119" data-name="Path 119" d="M230.172,261.912h2.942a1.465,1.465,0,0,0,0-2.93h-1.477v-1.477a1.465,1.465,0,0,0-2.93,0v1.728a4.406,4.406,0,0,0,1.465,8.562,1.477,1.477,0,1,1,0,2.954H227.23a1.465,1.465,0,0,0,0,2.93h1.477v1.477a1.465,1.465,0,0,0,2.93,0v-1.728a4.406,4.406,0,0,0-1.465-8.562,1.477,1.477,0,1,1,0-2.954Z" transform="translate(-203.072 -232.535)" fill="#111"/>
    </g>
  </g>
</svg>
