<svg xmlns="http://www.w3.org/2000/svg" width="54.199" height="75" viewBox="0 0 54.199 75">
  <g id="_012-customer_service" data-name="012-customer service" transform="translate(-71)">
    <g id="Group_33" data-name="Group 33" transform="translate(81.254 45.41)" opacity="0.65">
      <path id="Path_91" data-name="Path 91" d="M171.957,310H162.24a4.395,4.395,0,0,1-8.789,0h-9.716a11.526,11.526,0,0,0-2.735.33v27.8h33.691v-27.8A11.526,11.526,0,0,0,171.957,310Z" transform="translate(-141 -310)" fill="#3f8cff"/>
    </g>
    <g id="Group_34" data-name="Group 34" transform="translate(71)">
      <path id="Path_92" data-name="Path 92" d="M112.21,43.945h-8.251v-2.76a13.934,13.934,0,0,0,8.057-12.62v-.732h4.395a1.465,1.465,0,0,0,1.465-1.465V19.775a19.775,19.775,0,0,0-39.551,0V33.691a1.465,1.465,0,0,0,1.465,1.465h6.058a14.007,14.007,0,0,0,6.394,6.029v2.76H83.989A13,13,0,0,0,71,56.934v16.6A1.465,1.465,0,0,0,72.465,75h51.27a1.465,1.465,0,0,0,1.465-1.465v-16.6A13,13,0,0,0,112.21,43.945ZM81.254,21.973h2.93V24.9h-2.93Zm33.691,2.93h-2.93v-2.93h2.93ZM98.1,2.93a16.866,16.866,0,0,1,16.829,16.113H112a13.916,13.916,0,0,0-27.794,0H81.271A16.866,16.866,0,0,1,98.1,2.93Zm10.942,15.883-5.314-.759a11.274,11.274,0,0,1-5.155-2.135l-.3-.228a6.69,6.69,0,0,0-7.713-.214l-3.23,2.153a10.985,10.985,0,0,1,21.716,1.183ZM81.254,32.227V27.832h2.93v.732a13.884,13.884,0,0,0,.49,3.662Zm8.063,2.93h8.051a1.465,1.465,0,0,0,0-2.93H87.743a10.935,10.935,0,0,1-.63-3.662V21.292l5.067-3.378a3.756,3.756,0,0,1,4.33.12l.3.228a14.211,14.211,0,0,0,6.5,2.692l5.774.825v6.786a10.982,10.982,0,0,1-19.769,6.592Zm11.713,7.013V45.41a2.93,2.93,0,0,1-5.859,0V42.169A13.939,13.939,0,0,0,101.029,42.169Zm21.24,29.9H73.93V56.934A10.07,10.07,0,0,1,83.989,46.875h8.437a5.86,5.86,0,0,0,11.348,0h8.437A10.07,10.07,0,0,1,122.27,56.934Z" transform="translate(-71)" fill="#111"/>
    </g>
  </g>
</svg>
