<svg xmlns="http://www.w3.org/2000/svg" width="75" height="54.408" viewBox="0 0 75 54.408">
  <g id="_009-delivery_truck" data-name="009-delivery truck" transform="translate(0 -70.285)">
    <g id="Group_40" data-name="Group 40" transform="translate(14.702 77.633)" opacity="0.65">
      <path id="XMLID_429_" d="M391.551,170.653v14.708H407.73l-5.883-14.708Z" transform="translate(-348.897 -163.299)" fill="#3f8cff"/>
      <circle id="XMLID_442_" cx="10.296" cy="10.296" r="10.296" transform="translate(0 0)" fill="#3f8cff"/>
    </g>
    <g id="Group_41" data-name="Group 41" transform="translate(0 70.285)">
      <circle id="Ellipse_11" data-name="Ellipse 11" cx="1.465" cy="1.465" r="1.465" transform="translate(12.502 44.86)" fill="#676d7c"/>
      <path id="Path_104" data-name="Path 104" d="M162.118,157.954h4.412a1.465,1.465,0,1,0,0-2.93h-2.948v-2.948a1.465,1.465,0,1,0-2.93,0v4.413A1.465,1.465,0,0,0,162.118,157.954Z" transform="translate(-137.12 -138.845)" fill="#111"/>
      <path id="Path_105" data-name="Path 105" d="M74.9,99.151,69.3,85.163a4.381,4.381,0,0,0,1.288-3.105v-.024a4.4,4.4,0,0,0-4.395-4.395H52.938V74.692a4.412,4.412,0,0,0-4.407-4.407H4.407A4.412,4.412,0,0,0,0,74.692v36.77a4.412,4.412,0,0,0,4.407,4.407H5.919a8.082,8.082,0,1,0,16.1,0h30.97a8.082,8.082,0,1,0,16.1,0h1.512A4.412,4.412,0,0,0,75,111.462V99.7A1.469,1.469,0,0,0,74.9,99.151Zm-8.7-18.583a1.467,1.467,0,0,1,1.465,1.465v.024a1.468,1.468,0,0,1-1.465,1.465H52.938V80.569ZM4.407,73.215H48.531a1.478,1.478,0,0,1,1.477,1.477v27.952H2.93V74.692A1.478,1.478,0,0,1,4.407,73.215Zm9.56,48.549a5.154,5.154,0,1,1,5.154-5.154,5.16,5.16,0,0,1-5.154,5.154Zm0-13.237a8.09,8.09,0,0,0-7.2,4.412H4.407a1.478,1.478,0,0,1-1.477-1.477v-5.889H50.008v7.366H21.165a8.09,8.09,0,0,0-7.2-4.412Zm47.066,13.237a5.154,5.154,0,1,1,5.154-5.154A5.16,5.16,0,0,1,61.033,121.764Zm11.037-10.3a1.478,1.478,0,0,1-1.477,1.477H68.231a8.077,8.077,0,0,0-14.4,0h-.9V86.452c13.968-.008,13.29.02,13.713-.024L72.07,99.978Z" transform="translate(0 -70.285)" fill="#111"/>
      <circle id="Ellipse_12" data-name="Ellipse 12" cx="1.465" cy="1.465" r="1.465" transform="translate(59.568 44.86)" fill="#676d7c"/>
    </g>
  </g>
</svg>
