<svg data-name="Group 16" xmlns="http://www.w3.org/2000/svg" width="50" height="39.562" viewBox="0 0 50 39.562">
    <defs>
        <clipPath id="a">
            <path data-name="Rectangle 21" fill="#111" d="M0 0h50v39.562H0z" />
        </clipPath>
    </defs>
    <g data-name="Group 15" clip-path="url(#a)">
        <path data-name="Path 10" d="M27.406 22.063a2.406 2.406 0 1 1-2.407-2.407 2.407 2.407 0 0 1 2.407 2.407" fill="#3f8cff" />
        <path data-name="Path 11" d="M27.406 14.562a2.406 2.406 0 1 1-2.407-2.407 2.407 2.407 0 0 1 2.407 2.407" fill="#7c8da6" />
        <path data-name="Path 12" d="M38.267 39.563H11.733a1.415 1.415 0 0 1-1.415-1.415V20.4h-8.9A1.416 1.416 0 0 1 0 18.985V12.72C0 5.187 4.042 1.03 12.357.009a1.427 1.427 0 0 1 1.573 1.2C14.342 4.065 19.86 4.3 25 4.3s10.658-.239 11.07-3.092a1.433 1.433 0 0 1 1.573-1.2C45.958 1.03 50 5.187 50 12.72v6.265a1.416 1.416 0 0 1-1.415 1.415h-8.9v17.748a1.415 1.415 0 0 1-1.415 1.415m-25.118-2.83h23.7V18.985a1.415 1.415 0 0 1 1.415-1.415h8.9v-4.85c0-5.731-2.614-8.691-8.686-9.729C36.663 7.134 29.732 7.134 25 7.134s-11.662 0-13.485-4.142c-6.071 1.037-8.685 4-8.685 9.729v4.85h8.9a1.416 1.416 0 0 1 1.415 1.415Z" fill="#111" />
    </g>
</svg>