<svg data-name="Group 24" xmlns="http://www.w3.org/2000/svg" width="45.192" height="50" viewBox="0 0 45.192 50">
    <defs>
        <clipPath id="a">
            <path data-name="Rectangle 29" fill="#111" d="M0 0h45.192v50H0z" />
        </clipPath>
    </defs>
    <g data-name="Group 23" clip-path="url(#a)">
        <path data-name="Path 25" d="M39.142.001H6.049A6.056 6.056 0 0 0 0 6.05v37.9a6.056 6.056 0 0 0 6.049 6.051h33.093a6.057 6.057 0 0 0 6.05-6.05V6.05a6.057 6.057 0 0 0-6.05-6.049m3.166 43.95a3.168 3.168 0 0 1-3.165 3.165H6.049a3.168 3.168 0 0 1-3.165-3.165V6.05a3.168 3.168 0 0 1 3.165-3.165h33.093a3.168 3.168 0 0 1 3.165 3.165Z" fill="#111" />
        <path data-name="Path 26" d="M35.536 29.003a12.981 12.981 0 1 0 0 1.609c.024-.263.041-.531.041-.8s-.017-.541-.041-.8m-4.171 3.9c-.468 0-1.328-1.173-1.328-3.091s.859-3.091 1.328-3.091 1.327 1.2 1.327 3.091-.872 3.091-1.327 3.091m-8.769 7.006a10.1 10.1 0 1 1 8.168-16.007c-2.067.4-3.611 2.851-3.611 5.91s1.544 5.507 3.611 5.91a10.079 10.079 0 0 1-8.168 4.186" fill="#111" />
        <path data-name="Rectangle 26" fill="#111" d="M27.724 7.933h2.885v2.885h-2.885z" />
        <path data-name="Rectangle 27" fill="#7c8da6" d="M31.891 7.933h2.885v2.885h-2.885z" />
        <path data-name="Rectangle 28" fill="#111" d="M36.057 7.933h2.885v2.885h-2.885z" />
        <path data-name="Path 27" d="M18.27 10.815V7.932a1.442 1.442 0 0 0-2.885 0v1.442H7.693V7.932a1.442 1.442 0 0 0-2.885 0v2.883a1.442 1.442 0 0 0 1.442 1.442h10.577a1.442 1.442 0 0 0 1.443-1.442" fill="#3f8cff" />
    </g>
</svg>